<?xml version="1.0" encoding="UTF-8"?>
<svg xmlns="http://www.w3.org/2000/svg" viewBox="0 0 76.93 71.76">
  <defs>
    <style>
      .cls-1 {
        fill: #ee326d;
        stroke: #231f20;
      }

      .cls-1, .cls-2 {
        stroke-miterlimit: 10;
      }

      .cls-3 {
        fill: #231f20;
      }

      .cls-2 {
        fill: none;
        stroke: #fff;
      }

      .cls-4 {
        fill: #fffbd0;
      }
    </style>
  </defs>
  <g id="Layer_2_copy" data-name="Layer 2 copy">
    <line class="cls-2" x1="25.28" y1="13.85" x2="17.43" y2=".25"/>
    <line class="cls-2" x1="38.21" y1="9.64" x2="38.21" y2="1.78"/>
    <line class="cls-2" x1="60.1" y1="24.04" x2="66.9" y2="20.11"/>
    <line class="cls-2" x1="10.03" y1="20.11" x2="16.83" y2="24.04"/>
    <line class="cls-2" x1="56.36" y1="46.86" x2="63.16" y2="50.79"/>
    <line class="cls-2" x1="13.77" y1="50.79" x2="20.57" y2="46.86"/>
    <line class="cls-2" x1="51.65" y1="13.85" x2="59.5" y2=".25"/>
    <line class="cls-2" x1="61.23" y1="36.68" x2="76.93" y2="36.68"/>
    <line class="cls-2" x1="0" y1="36.68" x2="15.7" y2="36.68"/>
  </g>
  <g id="Layer_1" data-name="Layer 1">
    <rect class="cls-3" x="32.47" y="62.27" width="12" height="3"/>
    <g>
      <path class="cls-4" d="M31.86,59.77v-10.48l-.61-.26c-6.83-2.9-11.24-9.57-11.24-16.99,0-10.17,8.28-18.45,18.45-18.45s18.46,8.28,18.46,18.45c0,7.42-4.41,14.09-11.24,16.99l-.61.26v10.48h-13.21Z"/>
      <path class="cls-3" d="M38.46,14.59c9.63,0,17.46,7.83,17.46,17.45,0,7.01-4.17,13.32-10.63,16.07l-1.22.52v10.14h-11.21v-10.14l-1.22-.52c-6.46-2.75-10.63-9.05-10.63-16.07,0-9.62,7.83-17.45,17.45-17.45M38.46,12.59c-10.74,0-19.45,8.71-19.45,19.45,0,8.04,4.89,14.95,11.85,17.91v10.82h15.21v-10.82c6.96-2.96,11.85-9.87,11.85-17.91,0-10.74-8.71-19.45-19.46-19.45h0Z"/>
    </g>
    <circle class="cls-3" cx="38.47" cy="69.26" r="2.5"/>
    <path class="cls-1" d="M44.56,38.01l-6,6.25-6-6.25c-2.57-2.67-3.33-6.29-1.68-8s5.11-.92,7.68,1.75c2.44-2.54,5.8-3.22,7.44-1.5s1,5.21-1.44,7.75Z"/>
  </g>
</svg>